<svg width="100" height="33" viewBox="0 0 100 33" fill="none" xmlns="http://www.w3.org/2000/svg">
<g clip-path="url(#clip0_1_237)">
<path d="M2.91251 27.1767V3.3369C1.08103 0.799354 1.57638 1.49971 1.08103 0.799354H7.13377C7.62836 2.20182 8.69704 4.37783 10.2119 7.68212L13.7707 15.1406L17.4363 21.7375C16.7063 20.4014 17.4526 21.7673 17.4363 21.7375L32.33 0.797607H38.0427C36.6856 1.78086 35.8493 1.48365 35.8493 4.70934V20.2286C35.8493 26.797 35.7448 32.8939 27.0259 32.8939C18.7765 32.8939 15.4864 28.8823 11.7267 20.3072C11.7267 20.3072 4.73499 6.03691 4.16092 5.21084V27.1767C4.16092 31.4897 5.94418 31.8909 7.23208 32.9054H0C2.57581 31.2891 2.81344 28.7815 2.91251 27.1767ZM27.0259 32.008C31.9337 32.008 31.6032 24.8286 31.6032 20.2286V4.3873L18.0307 23.1334C20.171 26.7119 23.5267 32.008 27.0259 32.008Z" fill="#4F604A"/>
<path d="M41.6707 7.4028C42.8991 7.4028 43.8977 6.39769 43.8977 5.16124C43.8977 3.92479 42.8991 2.91968 41.6707 2.91968C40.4422 2.91968 39.4436 3.92479 39.4436 5.16124C39.4436 6.39769 40.4422 7.4028 41.6707 7.4028Z" fill="#4F604A"/>
<path d="M43.6758 29.5472V10.7771H43.234L38.9086 11.7922V12.3227L39.0196 12.3406C39.7527 12.4563 39.8914 12.7793 39.8914 14.3668V29.5472C39.8914 30.8115 39.5288 31.9084 38.439 32.9055H38.9106H45.2156C44.6231 32.5705 43.7888 31.4098 43.6778 29.5472H43.6758Z" fill="#4F604A"/>
<path d="M51.2428 29.5491V0H50.8009L46.4756 0.969215V1.54556L46.5865 1.56351C47.3196 1.67918 47.4583 2.00225 47.4583 3.58969V29.5491C47.4583 31.2004 46.535 32.5665 45.9683 32.9075H46.4775H52.2275H52.705C52.1384 32.5645 51.2468 31.2004 51.2468 29.5491H51.2428Z" fill="#4F604A"/>
<path d="M68.3271 8.94828H69.5338L72.2503 6.11841H67.7228C68.6283 7.19731 69.1117 8.00499 68.3271 8.94828Z" fill="#4F604A"/>
<path d="M75.2858 32.3072C74.8895 31.9084 74.307 31.2004 74.307 29.5491V18.4111C74.3426 17.8627 74.4397 15.3958 72.6564 13.2938C70.786 11.0921 68.2102 10.9027 67.4692 10.8469C66.4765 10.7731 62.5672 10.6753 60.6908 13.7066C59.286 15.9761 59.9478 18.4949 60.1063 19.0413C57.3185 20.2538 54.2731 22.633 54.7328 27.1859C54.7328 27.1859 54.7348 27.1959 54.7367 27.2019C54.7565 27.4033 54.7823 27.6087 54.818 27.8181C54.9884 28.7674 55.4025 29.5751 55.9811 30.2491C58.5727 33.6773 63.9363 32.9314 63.9363 32.9314H63.9344C67.4157 32.5445 69.4486 29.8961 70.5245 27.8141L70.5185 32.9055H75.2858H75.9257L75.2858 32.3072ZM70.5205 25.3971C70.2312 26.4381 69.7359 27.7902 68.9156 29.0047C68.1309 30.0876 67.055 31.1186 65.6166 31.7029C65.0717 31.9004 64.4733 32.028 63.8155 32.0659C61.735 32.1895 59.1315 30.8235 58.5509 28.3925C57.8733 25.5985 58.218 23.2971 59.5773 21.5541C61.2099 19.4601 63.861 18.6764 65.8226 18.3872C67.8516 18.1718 69.5041 18.4091 70.5185 18.6425V25.3971H70.5205ZM70.5205 17.8228C69.0127 17.4878 66.4151 17.2006 63.2924 18.0482C62.5038 18.2157 61.6855 18.4371 60.8691 18.7342C60.8018 18.5388 60.7463 18.3413 60.7027 18.1419C60.5779 17.4419 60.5145 16.4528 60.7998 15.4197C60.9623 14.8793 61.2119 14.3568 61.5468 13.8722C61.7231 13.6189 61.9173 13.3836 62.1253 13.1682C63.2607 12.0494 64.9033 11.4392 66.5597 11.5109C69.4704 11.7782 70.5225 14.8733 70.5225 17.7809V17.8228H70.5205Z" fill="#4F604A"/>
<path d="M93.2245 32.9055H93.7318H99.5253C99.7631 32.9055 99.7631 32.9055 100.159 32.9055C99.561 32.5445 98.4554 31.1705 98.2751 29.5352C98.1899 28.7434 98.0472 27.2876 97.8669 25.4469C97.6727 23.4586 97.4389 21.0814 97.2051 18.802C96.9178 15.9941 95.9034 13.2759 93.4524 11.7582C91.5681 10.5916 88.9685 10.3822 86.9098 11.3753C85.0196 12.2867 84.0863 13.9679 83.3294 15.334C82.5408 16.7559 82.1743 18.0661 81.988 18.9615V10.779H81.5462L77.2208 11.7941V12.3246L77.3318 12.3425C78.0649 12.4582 78.2036 12.7813 78.2036 14.3687V29.5491C78.2036 31.2004 77.4447 32.5645 76.878 32.9055H77.2228H83.0164H83.4166C82.8242 32.5704 81.99 31.2064 81.99 29.5491V25.8657C81.99 25.6264 82.0039 22.9461 82.5587 19.9846C82.6498 19.504 82.7727 18.9296 82.9431 18.3094C83.6801 15.6271 85.725 12.3386 88.2136 11.9537C89.3608 11.7762 90.3079 12.1611 90.3079 12.1611C90.3079 12.1611 90.9221 12.4103 91.4492 12.9049C92.8857 14.2451 93.3771 17.5336 93.4662 18.1539C94.2291 23.5384 94.0646 24.7549 94.3004 27.3993C94.3896 28.3944 94.4589 29.1802 94.4926 29.5611C94.6273 31.0388 93.8625 32.5445 93.2245 32.9055Z" fill="#4F604A"/>
</g>
<defs>
<clipPath id="clip0_1_237">
<rect width="100" height="33" fill="white"/>
</clipPath>
</defs>
</svg>
