<svg width="183" height="60" viewBox="0 0 183 60" fill="none" xmlns="http://www.w3.org/2000/svg">
<g clip-path="url(#clip0_1_237)">
<rect width="183" height="60" fill="white"/>
<path d="M5.32989 49.4125V6.06734C1.97829 1.45361 2.88478 2.727 1.97829 1.45361H13.0548C13.9599 4.00355 15.9156 7.95994 18.6877 13.9677L25.2003 27.5287L31.9083 39.5229C30.5724 37.0937 31.9382 39.5771 31.9083 39.5229L59.1638 1.45044H69.6182C67.1346 3.23817 65.6042 2.69778 65.6042 8.56268V36.7796C65.6042 48.7221 65.4129 59.8073 49.4574 59.8073C34.3611 59.8073 28.3401 52.5135 21.4599 36.9224C21.4599 36.9224 8.66502 10.9765 7.61449 9.47451V49.4125C7.61449 57.2542 10.8778 57.9836 13.2347 59.8282H0C4.71373 56.8894 5.14859 52.3303 5.32989 49.4125ZM49.4574 58.1965C58.4387 58.1965 57.8339 45.1431 57.8339 36.7796V7.97715L32.9961 42.0611C36.9129 48.5674 43.0538 58.1965 49.4574 58.1965Z" fill="#4F604A"/>
<path d="M76.2573 13.4595C78.5054 13.4595 80.3329 11.632 80.3329 9.38391C80.3329 7.13583 78.5054 5.30835 76.2573 5.30835C74.0092 5.30835 72.1818 7.13583 72.1818 9.38391C72.1818 11.632 74.0092 13.4595 76.2573 13.4595Z" fill="#4F604A"/>
<path d="M79.9268 53.7222V19.5947H79.1182L71.2027 21.4403V22.4048L71.4058 22.4375C72.7474 22.6478 73.0012 23.2352 73.0012 26.1214V53.7222C73.0012 56.021 72.3377 58.0153 70.3434 59.8282H71.2064H82.7445C81.6604 59.2191 80.1335 57.1088 79.9304 53.7222H79.9268Z" fill="#4F604A"/>
<path d="M93.7743 53.7257V0H92.9657L85.0503 1.76221V2.81011L85.2533 2.84274C86.5949 3.05305 86.8487 3.64045 86.8487 6.52671V53.7257C86.8487 56.728 85.159 59.2117 84.122 59.8318H85.0539H95.5764H96.4502C95.4132 59.2081 93.7816 56.728 93.7816 53.7257H93.7743Z" fill="#4F604A"/>
<path d="M125.039 16.2695H127.247L132.218 11.1243H123.933C125.59 13.0859 126.474 14.5544 125.039 16.2695Z" fill="#4F604A"/>
<path d="M137.773 58.7403C137.048 58.0151 135.982 56.7279 135.982 53.7256V33.4747C136.047 32.4776 136.225 27.9923 132.961 24.1705C129.538 20.1675 124.825 19.823 123.469 19.7215C121.652 19.5873 114.498 19.4097 111.064 24.9211C108.493 29.0474 109.704 33.627 109.995 34.6205C104.893 36.8251 99.3197 41.1509 100.161 49.4289C100.161 49.4289 100.165 49.447 100.168 49.4579C100.204 49.8241 100.252 50.1976 100.317 50.5783C100.629 52.3043 101.387 53.7728 102.445 54.9984C107.188 61.2314 117.004 59.8753 117.004 59.8753H117C123.371 59.1718 127.091 54.3566 129.06 50.5711L129.049 59.8281H137.773H138.944L137.773 58.7403ZM129.053 46.1764C128.523 48.0692 127.617 50.5276 126.116 52.7358C124.68 54.7047 122.711 56.5793 120.078 57.6417C119.081 58.0006 117.986 58.2327 116.782 58.3016C112.975 58.5264 108.211 56.0426 107.148 51.6226C105.908 46.5426 106.539 42.3583 109.026 39.1892C112.014 35.382 116.866 33.957 120.455 33.4312C124.168 33.0396 127.192 33.4711 129.049 33.8953V46.1764H129.053ZM129.053 32.4051C126.293 31.7959 121.54 31.2738 115.825 32.8148C114.382 33.1194 112.884 33.5219 111.391 34.0621C111.267 33.7068 111.166 33.3478 111.086 32.9852C110.858 31.7125 110.741 29.914 111.264 28.0358C111.561 27.0532 112.018 26.1032 112.631 25.2221C112.953 24.7616 113.309 24.3337 113.689 23.9421C115.767 21.908 118.773 20.7984 121.804 20.9289C127.131 21.4148 129.056 27.0423 129.056 32.3289V32.4051H129.053Z" fill="#4F604A"/>
<path d="M170.601 59.828H171.529H182.131C182.567 59.828 182.567 59.828 183.292 59.828C182.197 59.1718 180.173 56.6735 179.843 53.7002C179.687 52.2607 179.426 49.6138 179.096 46.267C178.741 42.6519 178.313 38.3298 177.885 34.1853C177.36 29.08 175.503 24.1378 171.018 21.3785C167.57 19.2573 162.812 18.8766 159.045 20.6823C155.586 22.3394 153.878 25.396 152.493 27.8798C151.05 30.4651 150.379 32.8474 150.038 34.4754V19.5982H149.23L141.314 21.4438V22.4083L141.517 22.4409C142.859 22.6512 143.113 23.2386 143.113 26.1249V53.7256C143.113 56.7279 141.724 59.208 140.687 59.828H141.318H151.92H152.652C151.568 59.2189 150.042 56.7387 150.042 53.7256V47.0285C150.042 46.5933 150.067 41.7201 151.082 36.3355C151.249 35.4617 151.474 34.4174 151.786 33.2897C153.135 28.4128 156.877 22.4336 161.431 21.7338C163.53 21.4111 165.263 22.1109 165.263 22.1109C165.263 22.1109 166.388 22.5642 167.352 23.4634C169.981 25.9001 170.88 31.8792 171.043 33.0069C172.439 42.797 172.138 45.0088 172.57 49.8168C172.733 51.6262 172.86 53.0548 172.921 53.7473C173.168 56.4342 171.768 59.1718 170.601 59.828Z" fill="#4F604A"/>
</g>
<defs>
<clipPath id="clip0_1_237">
<rect width="183" height="60" fill="white"/>
</clipPath>
</defs>
</svg>
