<svg width="100" height="32" viewBox="0 0 100 32" fill="none" xmlns="http://www.w3.org/2000/svg">
<path d="M3.03343 25.2374V2.42916C2.97472 2.15264 2.87006 1.80507 2.67095 1.43811C2.24337 0.643468 1.62688 0.204152 1.2912 0.0012921H7.04887C7.51985 1.3425 8.53583 3.42537 9.97685 6.58585L13.3618 13.7209L16.8488 20.0315C16.8641 20.0599 16.1544 18.7536 16.8488 20.0315L31.0139 0H36.4473C35.1569 0.940652 34.3605 0.656389 34.3605 3.74193V18.5895C34.3605 24.873 34.2609 30.7068 25.9671 30.7068C25.08 30.7068 21.9555 30.858 18.8782 29.0723C15.5405 27.1355 13.6413 23.2385 9.84155 15.4471C9.76114 15.2804 9.0617 13.8462 8.10953 11.9184C8.07634 11.8499 8.04699 11.7917 8.02146 11.7401C7.1229 9.92594 6.43622 8.56536 6.24093 8.17902C5.69593 7.1014 5.01435 5.76278 4.2179 4.2226V25.2374C4.21279 25.3692 4.15153 27.7273 5.16751 29.0943C5.56319 29.6254 6.08394 30.0492 6.08394 30.0492C6.47451 30.367 6.84721 30.5776 7.13822 30.7185H0.262451C2.71307 29.1718 2.93898 26.7737 3.03343 25.2374ZM25.9697 29.8592C30.6386 29.8592 30.3233 22.9904 30.3233 18.5895V3.43441L17.4129 21.3688C19.4487 24.7929 22.6409 29.8592 25.9684 29.8592H25.9697Z" fill="#4F604A"/>
<path d="M68.701 7.66863H69.8485L72.4318 4.96167H68.1254C68.9869 5.99406 69.4464 6.76674 68.6998 7.66863H68.701Z" fill="#4F604A"/>
<path d="M74.3885 27.3772V16.7212C74.423 16.1966 74.5149 13.836 72.8186 11.8254C71.0393 9.71931 68.59 9.53841 67.8842 9.48415C66.9396 9.41308 63.2216 9.32005 61.4372 12.2195C60.1009 14.3903 60.7301 16.8 60.8808 17.3233C58.2285 18.4836 55.3324 20.759 55.7689 25.1147C55.7689 25.1147 55.7702 25.1238 55.7727 25.1302C55.7919 25.3228 55.8161 25.5192 55.8506 25.7194C56.0127 26.6278 56.4071 27.4005 56.9572 28.0452C59.4219 31.3246 64.5248 30.6113 64.5248 30.6113H64.5235C67.8344 30.2418 69.7681 27.708 70.7917 25.7156L70.7866 30.5868H75.9303C75.6738 30.371 75.3483 30.0467 75.0662 29.6035C74.8697 29.2934 74.751 29.0117 74.6961 28.8747C74.6655 28.7959 74.6068 28.6422 74.5519 28.4445C74.4817 28.1938 74.4051 27.8307 74.3898 27.3746L74.3885 27.3772ZM70.7866 23.4053C70.5109 24.4015 70.0399 25.6949 69.2601 26.8565C68.5134 27.8927 67.4898 28.8786 66.1215 29.4381C65.6033 29.6268 65.034 29.7495 64.4086 29.7857C62.4303 29.9046 59.9528 28.5969 59.4014 26.2712C58.7569 23.5978 59.0849 21.3961 60.3779 19.7292C61.9312 17.7265 64.452 16.9758 66.3181 16.6993C68.2479 16.4938 69.8204 16.7199 70.7853 16.9435V23.4053H70.7866ZM70.7866 16.1592C69.352 15.8387 66.8809 15.5635 63.9108 16.3749C63.1603 16.5352 62.3818 16.7471 61.6057 17.0313C61.5419 16.844 61.4883 16.6553 61.4475 16.4641C61.3288 15.7948 61.2688 14.8477 61.5394 13.8592C61.6938 13.3424 61.9312 12.8423 62.2503 12.3785C62.4175 12.1355 62.6026 11.9107 62.8004 11.7053C63.8802 10.6354 65.4425 10.0514 67.0188 10.1199C69.7872 10.3757 70.7879 13.3372 70.7879 16.1178V16.1579H70.7866V16.1592Z" fill="#4F604A"/>
<path d="M93.4037 30.7172H100C98.8845 29.7429 98.4671 28.8152 98.2922 28.1614C98.2718 28.0852 98.259 28.0257 98.245 27.9611C97.8315 26.0501 97.6757 20.3377 97.2341 17.6398C96.9035 15.6254 96.3381 12.1729 93.6207 10.4841C91.8517 9.38456 89.373 9.15973 87.3972 10.1172C85.5988 10.9894 84.7117 12.598 83.9919 13.9043C83.2414 15.2649 82.8929 16.5183 82.7155 17.3749V9.54737L78.1806 10.519C78.1806 10.519 79.1149 11.4636 79.1149 12.9818V27.505C79.1149 29.0853 78.3924 30.3903 77.8538 30.7159H84.0735C83.5094 30.3955 82.7168 29.0904 82.7168 27.505V23.9815C82.7168 23.7528 82.7295 21.1879 83.2579 18.3556C83.3447 17.8956 83.4609 17.3465 83.623 16.7534C84.3237 14.1873 86.2689 11.041 88.6365 10.6728C89.7278 10.5035 90.6289 10.8718 90.6289 10.8718C90.6596 10.8847 91.2199 11.1199 91.7138 11.5837C92.2282 12.067 92.5001 12.5838 92.6877 13.0037C93.3808 14.5569 93.5748 16.1733 93.6016 16.3994C93.6909 17.1436 94.1747 21.2422 94.2806 22.0381C94.5027 23.6998 94.4287 23.7243 94.6622 26.2065C94.7414 27.0463 94.8116 27.7557 94.564 28.6343C94.2921 29.5956 93.7816 30.2908 93.4025 30.7185L93.4037 30.7172Z" fill="#4F604A"/>
<path d="M52.1326 24.2605V0.0231934L47.6436 1.17963L47.5989 1.19126C47.5989 1.19126 47.6742 1.29333 47.7814 1.4781C48.0533 1.94972 48.5332 2.97436 48.5332 4.34786V5.26913C48.5307 15.1938 48.4758 22.4787 48.5332 24.9362C48.546 25.5022 48.5932 26.9997 47.8772 28.673C47.4879 29.5814 46.9978 30.252 46.6404 30.6784H54.0943C52.9456 29.7778 52.213 27.1806 52.1326 24.2605Z" fill="#4F604A"/>
<path d="M41.0614 6.3132C42.2152 6.3132 43.1763 5.33249 43.1661 4.17219C43.1444 1.85286 40.0135 1.20681 39.0958 3.34007C38.4946 4.6942 39.5566 6.33646 41.0333 6.31449H41.0601L41.0614 6.3132Z" fill="#4F604A"/>
<path d="M42.8955 26.2673V9.61206L38.4997 10.4067L38.4551 10.4145C38.4551 10.4145 38.5291 10.4842 38.6338 10.6121C38.9005 10.9365 39.3702 11.6407 39.3702 12.5839V27.0387C39.3549 27.487 39.2655 28.3708 38.7269 29.2986C38.3287 29.986 37.8411 30.4266 37.5157 30.6772H44.8139C43.6894 30.0583 42.9721 28.2739 42.893 26.2673H42.8955Z" fill="#4F604A"/>
<path d="M50.2053 28.6523C50.1887 28.642 50.1708 28.6291 50.1542 28.6174V28.6523H50.2053Z" fill="#4F604A"/>
</svg>
