<svg width="629" height="252" viewBox="0 0 629 252" fill="none" xmlns="http://www.w3.org/2000/svg">
<g clip-path="url(#clip0_21_299)">
<path d="M29.1873 248.916C28.2133 249.534 27.1668 250.064 26.048 250.53C24.9211 250.988 23.7136 251.349 22.4257 251.614C21.1298 251.879 19.7775 252.008 18.3608 252.008C15.8332 252.008 13.5391 251.582 11.4785 250.739C9.41781 249.896 7.65498 248.723 6.18999 247.237C4.72499 245.743 3.59806 243.984 2.79312 241.96C1.98817 239.936 1.59375 237.735 1.59375 235.365C1.59375 232.996 2.00427 230.94 2.81727 228.908C3.63026 226.875 4.78133 225.1 6.26243 223.582C7.74353 222.064 9.50636 220.851 11.5509 219.96C13.5955 219.068 15.8413 218.626 18.2722 218.626C19.6889 218.626 20.9768 218.723 22.1279 218.924C23.279 219.124 24.3495 219.406 25.3396 219.775C26.3217 220.145 27.2554 220.594 28.1328 221.132C29.0102 221.671 29.8634 222.289 30.7006 222.996L27.0944 227.285C26.4746 226.763 25.8467 226.289 25.2028 225.855C24.5588 225.422 23.8746 225.068 23.1663 224.771C22.4579 224.482 21.6771 224.249 20.8319 224.08C19.9867 223.912 19.053 223.823 18.0388 223.823C16.5577 223.823 15.1812 224.12 13.9014 224.723C12.6215 225.325 11.5107 226.145 10.5769 227.197C9.63515 228.241 8.8946 229.462 8.35529 230.843C7.81597 232.233 7.55034 233.711 7.55034 235.277C7.55034 236.94 7.81597 238.482 8.33919 239.896C8.8624 241.309 9.611 242.538 10.5769 243.566C11.5429 244.594 12.702 245.406 14.0382 245.992C15.3744 246.578 16.8797 246.867 18.5459 246.867C20.0833 246.867 21.5242 246.643 22.8684 246.193C24.2047 245.743 25.3718 245.149 26.3539 244.41V238.337H18.0871V233.406H31.8516V246.964C31.0547 247.639 30.1612 248.289 29.1953 248.9L29.1873 248.916Z" fill="#83927E"/>
<path d="M60.9021 251.446L52.9332 240.201H45.7933V251.446H40.1587V219.173H54.5753C56.4266 219.173 58.0929 219.414 59.5901 219.888C61.0873 220.361 62.343 221.036 63.3813 221.92C64.4197 222.803 65.2086 223.872 65.764 225.149C66.3194 226.426 66.5931 227.847 66.5931 229.414C66.5931 230.763 66.3999 231.976 66.0135 233.036C65.6271 234.096 65.0959 235.036 64.4197 235.847C63.7436 236.659 62.9306 237.357 61.9968 237.92C61.0551 238.49 60.0167 238.924 58.8817 239.237L67.6154 251.454H60.9182L60.9021 251.446ZM59.0507 225.663C57.8755 224.755 56.2254 224.297 54.0923 224.297H45.8014V235.181H54.1406C56.1771 235.181 57.8031 234.683 59.0025 233.703C60.2099 232.715 60.8055 231.39 60.8055 229.719C60.8055 227.928 60.2179 226.578 59.0427 225.671L59.0507 225.663Z" fill="#83927E"/>
<path d="M98.4125 224.297H80.1161V232.594H96.3357V237.711H80.1161V246.329H98.6459V251.446H74.4814V219.173H98.4125V224.289V224.297Z" fill="#83927E"/>
<path d="M130.288 224.297H111.992V232.594H128.212V237.711H111.992V246.329H130.522V251.446H106.357V219.173H130.288V224.289V224.297Z" fill="#83927E"/>
<path d="M160.78 219.181H166.414V251.454H161.665L143.868 228.498V251.454H138.233V219.181H143.489L160.78 241.494V219.181Z" fill="#83927E"/>
<path d="M198.62 219.181H204.762L191.319 251.679H186.329L172.886 219.181H179.173L188.92 243.984L198.62 219.181Z" fill="#83927E"/>
<path d="M217.19 219.181V251.454H211.556V219.181H217.19Z" fill="#83927E"/>
<path d="M250.732 224.297H232.436V232.594H248.656V237.711H232.436V246.329H250.958V251.446H226.793V219.173H250.724V224.289L250.732 224.297Z" fill="#83927E"/>
<path d="M277.988 219.084H282.793L290.738 243.1L298.457 219.173H304.414L293.145 251.671H288.251L280.306 228.482L272.361 251.671H267.467L256.19 219.173H262.331L270.043 243.1L277.988 219.084Z" fill="#83927E"/>
<path d="M356.896 251.446H350.891L347.607 243.655H332.313L328.989 251.446H323.169L337.401 218.948H342.665L356.896 251.446ZM339.936 225.727L334.39 238.635H345.522L339.928 225.727H339.936Z" fill="#83927E"/>
<path d="M387.38 234.803C386.704 236.185 385.778 237.341 384.603 238.257C383.427 239.181 382.059 239.88 380.481 240.353C378.904 240.827 377.221 241.068 375.434 241.068H368.995V251.438H363.36V219.165H376.11C377.986 219.165 379.692 219.422 381.214 219.928C382.735 220.434 384.031 221.165 385.094 222.121C386.156 223.076 386.969 224.209 387.541 225.534C388.112 226.859 388.394 228.345 388.394 230.008C388.394 231.823 388.056 233.422 387.372 234.803H387.38ZM380.723 225.751C379.451 224.779 377.753 224.297 375.627 224.297H368.995V235.96H375.627C377.793 235.96 379.499 235.43 380.747 234.361C382.003 233.293 382.622 231.888 382.622 230.129C382.622 228.185 381.987 226.731 380.723 225.751Z" fill="#83927E"/>
<path d="M422.87 251.446H416.865L413.581 243.655H398.287L394.962 251.446H389.143L403.374 218.948H408.638L422.87 251.446ZM405.91 225.727L400.364 238.635H411.496L405.902 225.727H405.91Z" fill="#83927E"/>
<path d="M450.077 251.446L442.108 240.201H434.976V251.446H429.342V219.173H443.758C445.609 219.173 447.276 219.414 448.773 219.888C450.27 220.361 451.526 221.036 452.564 221.92C453.595 222.795 454.391 223.872 454.947 225.149C455.502 226.426 455.776 227.847 455.776 229.414C455.776 230.763 455.583 231.976 455.196 233.036C454.81 234.096 454.279 235.036 453.603 235.847C452.926 236.659 452.113 237.357 451.18 237.92C450.238 238.49 449.2 238.924 448.065 239.237L456.798 251.454H450.101L450.077 251.446ZM448.226 225.663C447.05 224.755 445.4 224.297 443.267 224.297H434.968V235.181H443.307C445.344 235.181 446.97 234.683 448.169 233.703C449.377 232.715 449.972 231.39 449.972 229.719C449.972 227.928 449.385 226.578 448.209 225.671L448.226 225.663Z" fill="#83927E"/>
<path d="M477.195 251.446H471.464V224.434H461.209V219.181H487.45V224.434H477.195V251.446Z" fill="#83927E"/>
<path d="M510.319 243.518H510.134L500.016 228.402V251.454H494.381V219.181H500.434L510.279 234.442L520.123 219.181H526.176V251.454H520.542V228.313L510.327 243.526L510.319 243.518Z" fill="#83927E"/>
<path d="M559.332 224.297H541.036V232.594H557.255V237.711H541.036V246.329H559.558V251.446H535.393V219.173H559.324V224.289L559.332 224.297Z" fill="#83927E"/>
<path d="M589.823 219.181H595.458V251.454H590.709L572.911 228.498V251.454H567.277V219.181H572.533L589.823 241.494V219.181Z" fill="#83927E"/>
<path d="M618.375 251.446H612.644V224.434H602.389V219.181H628.63V224.434H618.375V251.446Z" fill="#83927E"/>
<path d="M17.4754 156.884V15.1004C17.1051 13.3815 16.445 11.2209 15.1893 8.93976C12.4927 4 8.60486 1.26908 6.48786 0.00803213H42.7989C45.7692 8.34538 52.1765 21.2932 61.2644 40.9398L82.6115 85.2932L104.603 124.522C104.699 124.699 100.224 116.578 104.603 124.522L193.935 0H228.202C220.064 5.84739 215.041 4.08032 215.041 23.261V115.558C215.041 154.618 214.413 190.884 162.108 190.884C156.513 190.884 136.808 191.823 117.401 180.723C96.3519 168.683 84.3743 144.458 60.4111 96.0241C59.904 94.988 55.4929 86.0723 49.488 74.0884C49.2787 73.6627 49.0936 73.3012 48.9326 72.9799C43.2658 61.7028 38.9352 53.245 37.7036 50.8434C34.2665 44.1446 29.9681 35.8233 24.9452 26.249V156.884C24.913 157.703 24.5267 172.361 30.934 180.859C33.4294 184.161 36.7135 186.795 36.7135 186.795C39.1767 188.771 41.5271 190.08 43.3624 190.956H0C15.4549 181.341 16.8797 166.434 17.4754 156.884ZM162.124 185.614C191.569 185.614 189.581 142.916 189.581 115.558V21.3494L108.16 132.835C120.999 154.12 141.131 185.614 162.116 185.614H162.124Z" fill="#83927E"/>
<path d="M431.612 47.6707H438.848L455.14 30.8434H427.981C433.415 37.2611 436.312 42.0643 431.603 47.6707H431.612Z" fill="#83927E"/>
<path d="M467.48 170.185V103.944C467.697 100.683 468.277 86.0081 457.579 73.5101C446.358 60.4177 430.911 59.2932 426.46 58.9558C420.503 58.5141 397.055 57.9358 385.802 75.9599C377.374 89.4538 381.343 104.434 382.293 107.687C365.566 114.9 347.302 129.044 350.054 156.121C350.054 156.121 350.063 156.177 350.079 156.217C350.199 157.414 350.352 158.635 350.57 159.88C351.592 165.526 354.079 170.329 357.549 174.337C373.092 194.723 405.274 190.289 405.274 190.289H405.266C426.146 187.992 438.341 172.241 444.796 159.855L444.764 190.137H477.204C475.586 188.795 473.533 186.779 471.754 184.024C470.514 182.096 469.766 180.345 469.42 179.494C469.227 179.004 468.856 178.048 468.51 176.819C468.067 175.261 467.584 173.004 467.488 170.169L467.48 170.185ZM444.764 145.494C443.026 151.687 440.055 159.727 435.137 166.948C430.428 173.39 423.973 179.518 415.344 182.996C412.075 184.169 408.485 184.932 404.541 185.157C392.065 185.896 376.441 177.767 372.963 163.309C368.898 146.691 370.967 133.004 379.121 122.643C388.917 110.193 404.815 105.526 416.583 103.807C428.754 102.53 438.671 103.936 444.756 105.325V145.494H444.764ZM444.764 100.45C435.717 98.4579 420.133 96.747 401.402 101.791C396.669 102.787 391.759 104.104 386.865 105.872C386.462 104.707 386.124 103.534 385.866 102.345C385.118 98.1848 384.74 92.2972 386.446 86.1526C387.42 82.9398 388.917 79.8314 390.93 76.9478C391.984 75.4378 393.151 74.0402 394.399 72.7631C401.209 66.1125 411.061 62.482 421.002 62.9077C438.462 64.498 444.772 82.9077 444.772 100.193V100.442H444.764V100.45Z" fill="#83927E"/>
<path d="M587.4 190.948H629C621.965 184.892 619.333 179.124 618.23 175.06C618.101 174.586 618.021 174.217 617.932 173.815C615.324 161.936 614.342 126.426 611.557 109.655C609.472 97.1325 605.906 75.6707 588.769 65.1727C577.612 58.3373 561.98 56.9398 549.52 62.8916C538.178 68.3133 532.584 78.3133 528.044 86.4337C523.311 94.8916 521.113 102.683 519.994 108.008V59.3494L491.395 65.3896C491.395 65.3896 497.287 71.261 497.287 80.6988V170.98C497.287 180.803 492.731 188.916 489.334 190.94H528.559C525.001 188.948 520.002 180.835 520.002 170.98V149.076C520.002 147.655 520.083 131.711 523.415 114.104C523.963 111.245 524.695 107.831 525.717 104.145C530.137 88.1928 542.404 68.6345 557.336 66.3454C564.218 65.2932 569.901 67.5823 569.901 67.5823C570.094 67.6626 573.628 69.1245 576.743 72.008C579.987 75.012 581.701 78.2249 582.885 80.8353C587.256 90.49 588.479 100.538 588.648 101.944C589.212 106.57 592.262 132.048 592.93 136.996C594.331 147.325 593.864 147.478 595.337 162.908C595.836 168.129 596.279 172.538 594.717 178C593.003 183.976 589.783 188.297 587.392 190.956L587.4 190.948Z" fill="#83927E"/>
<path d="M327.122 150.811V0.144592L298.812 7.33335L298.53 7.40564C298.53 7.40564 299.005 8.04017 299.681 9.18877C301.396 12.1205 304.422 18.49 304.422 27.0281V32.755C304.406 94.4498 304.06 139.735 304.422 155.012C304.503 158.53 304.801 167.839 300.285 178.241C297.83 183.888 294.739 188.056 292.485 190.707H339.494C332.249 185.108 327.629 168.964 327.122 150.811Z" fill="#83927E"/>
<path d="M257.301 39.245C264.577 39.245 270.639 33.1486 270.574 25.9357C270.437 11.518 250.692 7.50198 244.905 20.763C241.113 29.1807 247.81 39.3895 257.124 39.253H257.293L257.301 39.245Z" fill="#83927E"/>
<path d="M268.868 163.285V59.751L241.145 64.6907L240.864 64.7389C240.864 64.7389 241.33 65.1727 241.991 65.9678C243.673 67.9839 246.635 72.3614 246.635 78.2249V168.08C246.538 170.867 245.975 176.361 242.578 182.128C240.067 186.402 236.992 189.141 234.939 190.699H280.966C273.874 186.851 269.351 175.759 268.852 163.285H268.868Z" fill="#83927E"/>
<path d="M314.967 178.113C314.862 178.048 314.75 177.968 314.645 177.896V178.113H314.967Z" fill="#83927E"/>
</g>
<defs>
<clipPath id="clip0_21_299">
<rect width="629" height="252" fill="white"/>
</clipPath>
</defs>
</svg>
