<svg width="506" height="165" viewBox="0 0 506 165" fill="none" xmlns="http://www.w3.org/2000/svg">
<g clip-path="url(#clip0_1_237)">
<rect width="506" height="165" fill="white"/>
<path d="M14.6993 136.274V16.7329C5.45591 4.00876 7.95592 7.52061 5.45591 4.00876H36.0038C38.5 11.0412 43.8936 21.9525 51.5389 38.5214L69.5 75.9211L88 109C84.3157 102.301 88.0823 109.15 88 109L163.168 4H192C185.15 8.93038 180.93 7.44005 180.93 23.6148V101.434C180.93 134.37 180.402 164.942 136.398 164.942C94.7644 164.942 78.1591 144.827 59.1842 101.828C59.1842 101.828 23.8973 30.2718 21 26.1296V136.274C21 157.901 30 159.913 36.5 165H0C13 156.895 14.1993 144.322 14.6993 136.274ZM136.398 160.5C161.168 160.5 159.5 124.5 159.5 101.434V22L91 116C101.802 133.944 118.738 160.5 136.398 160.5Z" fill="#4F604A"/>
<path d="M210.31 37.1201C216.51 37.1201 221.55 32.0801 221.55 25.8801C221.55 19.6801 216.51 14.6401 210.31 14.6401C204.11 14.6401 199.07 19.6801 199.07 25.8801C199.07 32.0801 204.11 37.1201 210.31 37.1201Z" fill="#4F604A"/>
<path d="M220.43 148.16V54.04H218.2L196.37 59.13V61.79L196.93 61.88C200.63 62.46 201.33 64.08 201.33 72.04V148.16C201.33 154.5 199.5 160 194 165H196.38H228.201C225.211 163.32 221 157.5 220.44 148.16H220.43Z" fill="#4F604A"/>
<path d="M258.62 148.17V0H256.39L234.56 4.86V7.75L235.12 7.84C238.82 8.42 239.52 10.04 239.52 18V148.17C239.52 156.45 234.86 163.3 232 165.01H234.57H263.59H266C263.14 163.29 258.64 156.45 258.64 148.17H258.62Z" fill="#4F604A"/>
<path d="M344.844 44.8699H350.934L364.644 30.6799H341.794C346.364 36.0899 348.804 40.1399 344.844 44.8699Z" fill="#4F604A"/>
<path d="M379.964 162C377.964 160 375.024 156.45 375.024 148.17V92.3201C375.204 89.5701 375.694 77.2001 366.694 66.6601C357.254 55.6201 344.254 54.6701 340.514 54.3901C335.504 54.0201 315.774 53.5301 306.304 68.7301C299.214 80.1101 302.554 92.7401 303.354 95.4801C289.284 101.56 273.914 113.49 276.234 136.32C276.234 136.32 276.244 136.37 276.254 136.4C276.354 137.41 276.484 138.44 276.664 139.49C277.524 144.25 279.614 148.3 282.534 151.68C295.614 168.87 322.684 165.13 322.684 165.13H322.674C340.244 163.19 350.504 149.91 355.934 139.47L355.904 165H379.964H383.194L379.964 162ZM355.914 127.35C354.454 132.57 351.954 139.35 347.814 145.44C343.854 150.87 338.424 156.04 331.164 158.97C328.414 159.96 325.394 160.6 322.074 160.79C311.574 161.41 298.434 154.56 295.504 142.37C292.084 128.36 293.824 116.82 300.684 108.08C308.924 97.5801 322.304 93.6501 332.204 92.2001C342.444 91.1201 350.784 92.3101 355.904 93.4801V127.35H355.914ZM355.914 89.3701C348.304 87.6901 335.194 86.2501 319.434 90.5001C315.454 91.3401 311.324 92.4501 307.204 93.9401C306.864 92.9601 306.584 91.9701 306.364 90.9701C305.734 87.4601 305.414 82.5001 306.854 77.3201C307.674 74.6101 308.934 71.9901 310.624 69.5601C311.514 68.2901 312.494 67.1101 313.544 66.0301C319.274 60.4201 327.564 57.3601 335.924 57.7201C350.614 59.0601 355.924 74.5801 355.924 89.1601V89.3701H355.914Z" fill="#4F604A"/>
<path d="M470.5 165H473.06H502.3C503.5 165 503.5 165 505.5 165C502.48 163.19 496.9 156.3 495.99 148.1C495.56 144.13 494.84 136.83 493.93 127.6C492.95 117.63 491.77 105.71 490.59 94.28C489.14 80.2 484.02 66.57 471.65 58.96C462.14 53.11 449.02 52.06 438.63 57.04C429.09 61.61 424.38 70.04 420.56 76.89C416.58 84.02 414.73 90.59 413.79 95.08V54.05H411.56L389.73 59.14V61.8L390.29 61.89C393.99 62.47 394.69 64.09 394.69 72.05V148.17C394.69 156.45 390.86 163.29 388 165H389.74H418.98H421C418.01 163.32 413.8 156.48 413.8 148.17V129.7C413.8 128.5 413.87 115.06 416.67 100.21C417.13 97.8 417.75 94.92 418.61 91.81C422.33 78.36 432.65 61.87 445.21 59.94C451 59.05 455.78 60.98 455.78 60.98C455.78 60.98 458.88 62.23 461.54 64.71C468.79 71.43 471.27 87.92 471.72 91.03C475.57 118.03 474.74 124.13 475.93 137.39C476.38 142.38 476.73 146.32 476.9 148.23C477.58 155.64 473.72 163.19 470.5 165Z" fill="#4F604A"/>
</g>
<defs>
<clipPath id="clip0_1_237">
<rect width="506" height="165" fill="white"/>
</clipPath>
</defs>
</svg>
